<?xml version="1.0" standalone="no"?>
<!DOCTYPE svg PUBLIC "-//W3C//DTD SVG 20010904//EN"
 "http://www.w3.org/TR/2001/REC-SVG-20010904/DTD/svg10.dtd">
<svg version="1.0" xmlns="http://www.w3.org/2000/svg"
 width="137.000000pt" height="137.000000pt" viewBox="0 0 137.000000 137.000000"
 preserveAspectRatio="xMidYMid meet">

<g transform="translate(0.000000,137.000000) scale(0.100000,-0.100000)"
fill="#000000" stroke="none">
<path d="M655 1178 c-11 -6 -24 -17 -30 -24 -5 -7 -35 -22 -66 -34 -122 -45
-178 -113 -179 -216 0 -28 -6 -67 -14 -85 -35 -86 -26 -269 14 -309 11 -11 23
-44 29 -74 14 -74 26 -96 95 -166 64 -65 104 -84 181 -84 77 0 117 19 181 84
69 70 81 92 95 166 6 30 18 63 29 74 40 40 49 223 14 309 -8 18 -14 57 -14 85
-1 103 -57 171 -179 216 -31 12 -60 27 -66 34 -11 14 -49 36 -62 36 -4 0 -17
-6 -28 -12z m174 -305 c64 -32 109 -84 121 -139 9 -40 -14 -130 -46 -180 -38
-58 -144 -83 -144 -34 0 25 -29 40 -75 40 -46 0 -75 -15 -75 -39 0 -31 -47
-36 -96 -9 -44 23 -62 52 -93 150 -31 95 55 205 186 238 63 16 161 4 222 -27z
m-435 -199 c3 -9 6 -46 6 -82 -1 -49 -3 -62 -10 -50 -15 24 -30 115 -24 133 8
19 20 19 28 -1z m604 -48 c-3 -35 -10 -72 -16 -82 -9 -15 -11 -7 -12 41 0 69
8 105 23 105 6 0 8 -24 5 -64z m-508 -136 c30 -12 30 -13 13 -33 -17 -19 -17
-20 2 -14 11 3 38 13 60 21 22 8 70 15 107 16 58 0 67 -3 73 -20 3 -11 4 -24
1 -29 -11 -17 -63 -23 -102 -12 -21 6 -40 8 -42 6 -3 -2 1 -18 8 -34 14 -34
49 -61 80 -61 27 0 27 -48 -1 -84 -31 -40 -95 -30 -142 22 -17 19 -17 20 5 27
21 6 19 8 -14 14 -71 14 -98 58 -104 170 -5 72 -4 74 10 50 8 -14 29 -32 46
-39z m224 44 c31 -12 16 -24 -29 -24 -25 0 -45 4 -45 9 0 17 45 26 74 15z m12
-149 c-11 -8 -29 -15 -41 -15 -12 0 -30 7 -41 15 -17 13 -14 14 41 14 55 0 58
-1 41 -14z"/>
<path d="M531 770 c-18 -4 -43 -18 -55 -30 l-21 -23 25 8 c30 10 93 10 138 0
28 -6 32 -5 32 14 0 20 -7 24 -70 36 -8 1 -30 -1 -49 -5z"/>
<path d="M748 769 c-17 -7 -28 -18 -28 -30 0 -22 17 -24 71 -7 32 9 46 8 80
-5 45 -18 49 -5 8 25 -30 22 -96 31 -131 17z"/>
<path d="M574 636 c-4 -9 -4 -27 -2 -41 3 -13 0 -26 -6 -29 -6 -2 -4 -5 5 -5
24 -1 41 24 37 55 -3 31 -25 44 -34 20z"/>
<path d="M767 644 c-11 -12 -8 -59 5 -72 7 -7 19 -12 27 -12 10 0 12 3 6 8 -5
4 -10 22 -10 41 0 33 -13 49 -28 35z"/>
</g>
</svg>
